# xmcd
#
# Track frame offsets:
#	150
#	12211
#	32000
#	43582
#	57210
#	66582
#	81702
#	94668
#	105649
#	120068
#	129632
#	148704
#
# Disc length: 2239
#
# Revision: 2
# Processed by: cddbd v1.5.1PL0 Copyright (c) Steve Scherf et al.
# Submitted via: EasyCDDAExtractor 6.2.0.3
# Normalized: r1:DSETVAR1
#
DISCID=a208bd0c
DTITLE=Various Artist - R&B Hits
DYEAR=2001
DGENRE=Soul
TTITLE0=The Foundations - Build Me Up Buttercup
TTITLE1=Jesse Green - Be Happy
TTITLE2=Clarence "Frogman" Henry - But I Do
TTITLE3=Tommy Hunt - Loving On The Losing Side
TTITLE4=Jimmy Jones - Handyman
TTITLE5=The Platters - The Great Pretender
TTITLE6=Lloyd Price - Stagger lee
TTITLE7=Sam and Dave - Hold On I'm Coming
TTITLE8=Percy Sledge - Warm And Tender Love
TTITLE9=The Drifters - Up On The Roof
TTITLE10=Eddie Floyd - California Girl
TTITLE11=Ohio Players - Somewhere Over The Rainbow
EXTD=
EXTT0=
EXTT1=
EXTT2=
EXTT3=
EXTT4=
EXTT5=
EXTT6=
EXTT7=
EXTT8=
EXTT9=
EXTT10=
EXTT11=
PLAYORDER=
